<?xml version="1.0" encoding="utf-8"?>
<!-- Generator: Adobe Illustrator 18.1.1, SVG Export Plug-In . SVG Version: 6.00 Build 0)  -->
<!DOCTYPE svg PUBLIC "-//W3C//DTD SVG 1.1//EN" "http://www.w3.org/Graphics/SVG/1.1/DTD/svg11.dtd">
<svg version="1.1" id="Layer_1" xmlns="http://www.w3.org/2000/svg" xmlns:xlink="http://www.w3.org/1999/xlink" x="0px" y="0px"
	 viewBox="0 0 1001 260" enable-background="new 0 0 1001 260" xml:space="preserve">
<g id="Layer_1_1_">
	<g>
		<g>
			<path d="M991.5,194.6c3.5-9.4,5.3-19.5,5.3-30.1c0-49.4-41.3-89.5-92.2-89.5c-41.6,0-76.8,26.8-88.3,63.5
				C804.9,101.8,769.8,75,728.2,75c-23.8,0-45.5,8.8-61.9,23.2c-16.4-14.4-38.1-23.2-62-23.2c-34.1,0-63.9,18-79.9,44.8
				c-16.3-25.3-45.2-42.1-78.2-42.1c-42.9,0-79,28.4-89.3,67c-9.3-39.8-46-69.6-89.9-69.6V12.7h-84.3v115.4c-0.5,1-0.9,2-1.3,3
				C167.8,98.2,134.6,75,95.8,75c-50.9,0-92.2,40.1-92.2,89.5S44.9,254,95.8,254c38.8,0,72-23.2,85.6-56.2c0.4,1,0.9,2,1.3,3v50.5
				h62.1c7.1,1.7,14.5,2.6,22.1,2.6c10.8,0,21.2-1.8,30.9-5.2h61.3V197c12.7,34.8,46.8,59.7,87,59.7c27,0,51.4-11.3,68.2-29.3
				c13.5,14.7,33.4,24.1,55.6,24.1c35.2,0,64.7-23.4,72-54.8c13.3,33.6,46.8,57.4,86.1,57.4c35.4,0,66.2-19.4,81.6-47.9v45.3h72.7
				c7.1,1.7,14.5,2.6,22.1,2.6c7.6,0,15-0.9,22.1-2.6h64.7v-56.9H991.5z"/>
		</g>
	</g>
</g>
</svg>
